<svg xmlns="http://www.w3.org/2000/svg" width="512" height="512" aria-label="Energy Modelling Tools"><defs><linearGradient id="prefix__b" x1="0" y1="0" x2="1" y2="1"><stop offset="0%" stop-color="#3FE28B"/><stop offset="100%" stop-color="#19B45E"/></linearGradient></defs><circle cx="256" cy="256" r="228" fill="#FFF"/><path d="M453.454 142a228 228 0 11-394.908 0" fill="none" stroke="#000" stroke-width="12" stroke-linecap="round"/><path id="prefix__a" d="M53.35 139a234 234 0 01405.3 0" fill="none"/><text font-family="Inter, Arial, Helvetica, sans-serif" font-size="28" font-weight="800" letter-spacing="1.2"><textPath href="#prefix__a" startOffset="50%" text-anchor="middle">ENERGY MODELLING TOOLS</textPath></text><circle cx="256" cy="256" r="188" fill="url(#prefix__b)"/><g stroke="#FFF" stroke-width="12" stroke-linecap="round" stroke-linejoin="round" fill="none"><circle cx="186" cy="276" r="13" fill="#FFF"/><circle cx="256" cy="214" r="13" fill="#FFF"/><circle cx="326" cy="252" r="13" fill="#FFF"/><path d="M186 276l70-62M256 214l70 38M190 348v-50M232 348v-76M274 348V240M316 348v-64M168 348h176"/></g><path d="M286 140l-60 120h36l-24 108 80-132h-40z" fill="#FFF"/></svg>